<svg xmlns="http://www.w3.org/2000/svg" viewBox="0 0 300 350" width="300" height="350">
  <defs>
    <color id="pepeGreen" value="#4C9F70"/>
    <color id="grassGreen" value="#2E7D32"/>
    <color id="darkOutline" value="#1A1A1A"/>
    <color id="goldBorder" value="#C0A000"/>
    <filter id="shadow" x="-20%" y="-20%" width="140%" height="140%">
      <feDropShadow dx="3" dy="4" stdDeviation="2" flood-color="#000000" flood-opacity="0.3"/>
    </filter>
  </defs>

  <path d="M150,340 C50,300 20,200 20,100 L20,40 L280,40 L280,100 C280,200 250,300 150,340 Z" 
        fill="#2E7D32" stroke="#C0A000" stroke-width="8" filter="url(#shadow)"/>
  
  <path d="M30,160 C80,180 220,180 270,160" stroke="#C0A000" stroke-width="5" fill="none"/>

  <g transform="translate(150, 95)">
    <circle cx="0" cy="0" r="50" fill="#FFFFFF" stroke="#1A1A1A" stroke-width="3"/>
    <path d="M-15,-15 L15,-15 L25,10 L0,25 L-25,10 Z" fill="#1A1A1A"/>
    <path d="M-35,-30 L-15,-15 L-25,10 L-48,0 Z" fill="#1A1A1A"/>
    <path d="M35,-30 L15,-15 L25,10 L48,0 Z" fill="#1A1A1A"/>
  </g>

  <g transform="translate(150, 240) scale(0.9)">
    <path d="M-70,0 C-70,-50 -40,-80 0,-80 C40,-80 70,-50 70,0 C70,60 30,85 0,85 C-30,85 -70,60 -70,0 Z" 
          fill="#4C9F70" stroke="#1A1A1A" stroke-width="3"/>
    
    <ellipse cx="-35" cy="-25" rx="25" ry="20" fill="#FFFFFF" stroke="#1A1A1A" stroke-width="2"/>
    <circle cx="-35" cy="-25" r="8" fill="#1A1A1A"/>
    <path d="M-60,-30 Q-35,-45 -10,-30" stroke="#4C9F70" stroke-width="4" fill="none" opacity="0.6"/>

    <ellipse cx="35" cy="-25" rx="25" ry="20" fill="#FFFFFF" stroke="#1A1A1A" stroke-width="2"/>
    <circle cx="35" cy="-25" r="8" fill="#1A1A1A"/>
    <path d="M60,-30 Q35,-45 10,-30" stroke="#4C9F70" stroke-width="4" fill="none" opacity="0.6"/>

    <path d="M-40,30 Q-20,50 0,45 Q20,40 40,30" 
          fill="none" stroke="#8B4513" stroke-width="4" stroke-linecap="round"/>
  </g>

  </svg>